<?xml version="1.0" encoding="utf-8"?>
<!-- Svg Vector Icons : http://www.onlinewebfonts.com/icon -->
<!DOCTYPE svg PUBLIC "-//W3C//DTD SVG 1.1//EN" "http://www.w3.org/Graphics/SVG/1.1/DTD/svg11.dtd">
<svg version="1.1" xmlns="http://www.w3.org/2000/svg" xmlns:xlink="http://www.w3.org/1999/xlink" x="0px" y="0px" viewBox="0 0 1000 1000" enable-background="new 0 0 1000 1000" xml:space="preserve">
<metadata> Svg Vector Icons : http://www.onlinewebfonts.com/icon </metadata>
<g><g transform="translate(0.000000,511.000000) scale(0.100000,-0.100000)"><path d="M7094.2,5000.9c-758.4-89.6-1514.5-719-2200.8-1831.4c-303.8-493.9-664.4-1237-972.5-2012.8l-72.1-181.4l-542-170.5c-297.2-94-546.4-172.7-550.7-177c-17.5-19.7-1359.4-2871.7-1352.8-2878.2c2.2-4.4,443.6,190.1,979.1,430.5c537.6,242.6,1003.1,445.8,1035.9,452.4c45.9,8.8,126.8-19.7,316.9-109.3c286.3-137.7,356.2-207.6,330-330c-6.6-35-109.3-277.6-227.3-537.6c-118-260.1-222.9-509.2-229.5-550.7c-19.7-102.7,48.1-253.5,144.2-323.4c56.8-41.5,100.5-52.5,196.7-52.5c192.3,2.2,247,56.8,402.1,397.8c69.9,153,159.5,347.5,201.1,432.7c247,513.6,209.8,948.5-115.8,1300.3c-150.8,161.7-268.8,236-555.1,351.8c-209.8,85.2-247,94-426.2,94c-201.1,2.2-340.9-30.6-520.1-122.4c-45.9-24-91.8-39.3-100.5-35c-15.3,6.6,308.1,716.8,395.6,869.8c26.2,48.1,109.3,78.7,592.3,229.5l561.7,172.6l37.2,100.5C5112,2417.6,5804.8,3556.3,6585,4074.2c308.1,205.4,596.6,295,810.8,249.1c214.2-48.1,404.3-330,487.4-725.6C8062.4,2728,7669,1421.1,6738-218c-104.9-181.4-190.1-343.1-190.1-356.2c0-10.9,94-247,207.6-524.5l207.6-500.4l-220.7-487.4c-120.2-266.6-227.3-493.9-238.2-502.7c-8.8-10.9-39.3,56.8-67.7,148.6c-56.8,192.3-129,279.7-260.1,319.1c-209.8,63.4-437.1-100.5-437.1-312.5c0-39.3,139.9-537.6,312.5-1103.7l312.5-1033.7l670.9,1470.8c369.4,806.4,670.9,1477.4,670.9,1486.1c0,10.9-87.4,231.7-196.7,493.9c-107.1,262.2-196.7,485.2-196.7,496.1c0,10.9,65.6,137.7,144.2,281.9c611.9,1119,1001,2181.1,1116.8,3048.7c39.3,303.8,26.2,878.6-24.1,1088.3c-118,469.9-397.7,900.4-712.5,1090.6C7673.3,4983.4,7363,5031.4,7094.2,5000.9z"/><path d="M6390.5,3361.8c-286.3-72.1-594.4-336.6-734.3-625c-76.5-163.9-80.9-183.6-80.9-391.2s4.4-227.3,80.9-389c196.7-413.1,596.6-668.8,998.8-644.7c301.6,19.7,570.4,172.6,773.6,437.1c192.3,255.7,255.7,555.1,179.2,839.2c-76.5,281.9-321.3,561.7-611.9,701.5c-137.7,65.6-192.3,78.7-343.1,85.2C6552.2,3379.2,6434.2,3372.7,6390.5,3361.8z M6735.8,2682.1c170.5-43.7,251.3-201.1,216.4-430.5c-28.4-194.5-207.6-297.2-448-255.7c-133.3,21.9-214.2,104.9-244.8,251.3c-41.5,209.8,28.4,369.3,190.1,426.2C6556.6,2710.5,6611.2,2712.7,6735.8,2682.1z"/><path d="M2616.2-2141.2c-266.6-120.2-399.9-236.1-498.3-434.9c-52.5-109.3-61.2-153-61.2-312.5c0-159.5,8.7-201.1,61.2-301.6c94-181.4,222.9-303.8,413.1-399.9c94-45.9,183.6-107.1,201.1-133.3c17.5-28.4,52.4-148.6,78.7-268.8s72.1-262.3,98.3-316.9c144.2-281.9,493.9-480.8,841.4-480.8c170.5,0,262.3,28.4,539.8,170.5l201.1,102.7l170.5-85.2c135.5-67.7,201.1-87.4,327.8-96.2c203.3-13.1,417.4,48.1,546.4,159.5c113.6,96.2,218.5,306,251.3,496.1c24,137.7,21.9,153-56.8,402.1c-91.8,286.3-144.2,358.4-292.8,404.3c-179.2,52.5-365-54.6-421.8-240.4c-24-85.2-21.9-109.3,30.6-273.2c98.4-299.4,83-321.3-137.7-209.8c-69.9,35-196.7,76.5-281.9,89.6c-218.5,37.1-369.3,2.2-688.4-157.3c-142.1-69.9-275.4-128.9-297.2-128.9c-67.7,0-104.9,74.3-161.7,327.8c-32.8,137.7-85.2,303.8-118,369.3c-87.4,177-290.7,369.3-480.8,461.1c-212,100.5-205.4,128.9,50.3,242.6c290.7,128.9,349.7,203.2,334.4,402.1c-10.9,133.3-72.1,231.7-179.2,281.9C2963.7-2014.5,2863.1-2027.6,2616.2-2141.2z"/></g></g>
</svg>