<?xml version="1.0" encoding="utf-8"?>
<!-- Svg Vector Icons : http://www.onlinewebfonts.com/icon -->
<!DOCTYPE svg PUBLIC "-//W3C//DTD SVG 1.1//EN" "http://www.w3.org/Graphics/SVG/1.1/DTD/svg11.dtd">
<svg version="1.1" xmlns="http://www.w3.org/2000/svg" xmlns:xlink="http://www.w3.org/1999/xlink" x="0px" y="0px" viewBox="0 0 1000 1000" enable-background="new 0 0 1000 1000" xml:space="preserve">
<metadata> Svg Vector Icons : http://www.onlinewebfonts.com/icon </metadata>
<g><g transform="translate(0.000000,511.000000) scale(0.100000,-0.100000)"><path d="M7313.4,3520.7c-51.7-46-63.2-70.8-70.8-160.8l-7.7-107.2l-1826.5-547.6l-1826.5-547.6H2442.7c-1271.3,0-1250.2,1.9-1301.9-122.5c-19.2-45.9-28.7-135.9-28.7-277.6v-210.6l-346.6-5.7l-346.5-5.7l-55.5-63.2c-55.5-61.3-55.5-65.1-55.5-296.8L306,941.8l-80.4-38.3C106.9,846,95.4,811.6,101.2,497.6c5.7-254.6,7.6-273.8,51.7-319.7c24.9-26.8,68.9-53.6,99.6-59.4l55.5-13.4v-237.4c0-235.5,0-237.4,55.5-298.7l55.5-63.2l346.5-5.7l346.6-5.7v-210.6c0-344.6,45.9-400.2,333.1-400.2h162.7l17.2-61.3c9.6-34.5,128.3-539.9,264.2-1120l247-1058.8h915.2c501.6,0,913.3,5.7,913.3,15.3c0,7.7-111,331.2-247,721.8l-247,708.4l45.9,53.6c59.4,70.8,61.3,180,5.7,250.8l-40.2,51.7l91.9,199.1c51.7,111,101.5,201,111,201s811.8-237.4,1782.5-530.3l1767.1-528.4l7.7-103.4c7.6-84.2,21.1-114.9,67-162.7c84.2-84.2,195.3-82.3,279.5,1.9l61.3,59.3l5.7,953.5l5.7,951.5l78.5,47.9c101.5,63.2,289.1,264.2,359.9,388.7c32.5,55.5,80.4,168.5,107.2,252.7c68.9,206.8,72.8,507.4,7.7,708.4c-82.3,262.3-283.3,541.8-474.8,660.5l-78.5,47.9l-5.7,934.3l-5.7,936.2l-63.2,55.5C7502.9,3595.4,7397.6,3595.4,7313.4,3520.7z M7238.7,520.6c0-1269.4-1.9-2307.1-3.8-2307.1c-3.8,0-733.3,218.3-1623.6,486.3L3993.5-815.8l-5.7,1332.6l-3.8,1332.5l99.6,30.6c201,63.2,3126.5,943.9,3141.8,945.8C7233,2827.6,7238.7,1789.9,7238.7,520.6z M3562.7,511V-714.4H2548H1533.3V511v1225.3H2548h1014.7V511z M1112.1,511v-612.7H911H710V511v612.7h201h201V511z M7790.1,861.4c46-99.6,51.7-132.1,51.7-321.6s-5.7-222.1-51.7-321.6c-28.7-61.3-70.8-134-91.9-160.8l-38.3-49.8v532.3V1072l38.3-49.8C7719.3,995.4,7761.4,922.6,7790.1,861.4z M3101.3-1394c-72.8-153.2-132.1-287.2-132.1-298.7s95.7-291,210.6-624.2c116.8-333.1,210.6-612.7,210.6-622.2c0-7.6-208.7-15.3-463.3-15.3h-465.2l-208.7,896c-114.9,492.1-212.5,905.6-218.3,919c-5.8,17.2,120.6,23,595.4,23h605L3101.3-1394z"/><path d="M9090.1,1722.9c-599.3-239.3-616.5-250.8-616.5-392.5c0-97.6,90-189.5,183.8-193.4c42.1,0,260.4,76.6,606.9,214.4c589.7,237.4,635.6,264.2,635.6,398.2c0,93.8-103.4,197.2-193.4,197.2C9670.3,1945,9394.5,1845.5,9090.1,1722.9z"/><path d="M8561.7,691c-24.9-17.2-57.4-61.3-72.7-97.6c-34.5-82.3-7.7-178.1,65.1-235.5c45.9-36.4,76.6-38.3,631.8-38.3h583.9l65.1,65.1c49.8,49.8,65.1,80.4,65.1,135.9c0,55.5-15.3,86.2-65.1,135.9l-65.1,65.1h-582C8682.3,721.6,8600,717.8,8561.7,691z"/><path d="M8544.5-149.6c-114.9-95.7-90-262.3,47.9-331.2c181.9-90,1058.8-425,1114.3-425c91.9,0,193.4,105.3,193.4,199.1c0,128.3-53.6,160.8-633.7,392.5c-325.5,132.1-555.2,212.5-597.4,212.5C8624.9-101.7,8580.8-118.9,8544.5-149.6z"/></g></g>
</svg>