<?xml version="1.0" encoding="utf-8"?>
<!-- Svg Vector Icons : http://www.onlinewebfonts.com/icon -->
<!DOCTYPE svg PUBLIC "-//W3C//DTD SVG 1.1//EN" "http://www.w3.org/Graphics/SVG/1.1/DTD/svg11.dtd">
<svg version="1.1" xmlns="http://www.w3.org/2000/svg" xmlns:xlink="http://www.w3.org/1999/xlink" x="0px" y="0px" viewBox="0 0 1000 1000" enable-background="new 0 0 1000 1000" xml:space="preserve">
<metadata> Svg Vector Icons : http://www.onlinewebfonts.com/icon </metadata>
<g><g transform="translate(0.000000,511.000000) scale(0.100000,-0.100000)"><path d="M4524.2,5000.8c-38.9-9.2,27.5-50.4,286.2-180.9c187.7-91.6,439.6-231.2,560.9-306.8l222.1-139.7l84.7,50.4c48.1,27.5,132.8,57.2,187.7,64.1l100.8,11.4l77.8,192.3c43.5,107.6,73.3,196.9,68.7,203.8c-6.9,4.6-121.3,29.8-258.7,55c-185.4,32.1-377.8,45.8-762.4,52.7C4808.1,5007.7,4553.9,5005.4,4524.2,5000.8z"/><path d="M3786.9,4874.9c-290.8-82.4-622.8-203.8-863.2-318.2c-295.3-142-670.8-357.2-670.8-386.9c0-9.2,68.7-103,151.1-208.3c176.3-226.7,446.5-625,590.7-881.5l103-180.9l144.2-38.9c114.5-32.1,151.1-34.3,180.9-13.7c689.2,501.4,1172.2,778.4,1790.4,1023.4l245,98.4v87c0,82.4-6.9,89.3-199.2,212.9c-384.6,247.3-1115,588.4-1330.2,620.5C3894.6,4893.2,3830.4,4886.4,3786.9,4874.9z"/><path d="M6298.6,4609.3l-80.1-201.5l73.3-82.4l71-80.1l137.4,32.1c247.3,57.2,686.9,142,739.5,142c27.5,0,50.4,9.2,50.4,18.3c0,45.8-778.4,370.9-883.8,370.9C6392.4,4808.5,6342.1,4719.2,6298.6,4609.3z"/><path d="M7518.9,4197.2c-332-52.7-755.5-130.5-904.4-162.5l-183.2-41.2l-41.2-116.8l-41.2-116.8l187.7-192.3c354.9-364,712.1-838,977.6-1300.5l137.4-240.4l105.3-11.4c57.2-6.9,135.1-36.6,171.7-64.1l68.7-50.4l316,148.8c174,82.4,457.9,229,631.9,325.1l315.9,171.7l-61.8,107.6c-240.4,414.4-684.6,927.3-1089.8,1254.7C7731.8,4213.2,7704.3,4227,7518.9,4197.2z"/><path d="M1850,3876.7c-473.9-389.2-931.8-963.9-1211.2-1518l-107.6-212.9l55-41.2c162.5-125.9,712-407.5,1069.2-549.5c167.1-68.7,169.4-68.7,217.5-25.2c80.1,73.3,142,96.2,258.7,96.2c109.9,0,109.9,2.3,240.4,167.1c71,89.3,201.5,242.7,288.5,336.6c125.9,137.4,155.7,180.9,139.7,217.5c-34.3,89.3-20.6,245,27.5,329.7l48.1,87l-148.8,249.6c-208.3,350.3-661.7,989.1-705.2,991.4C2014.9,4007.2,1939.3,3947.7,1850,3876.7z"/><path d="M5263.7,3615.7c-540.3-217.5-1096.7-528.9-1518-844.8L3546.5,2622l-11.4-128.2c-6.9-68.7-29.8-162.6-54.9-208.3l-43.5-80.1l64.1-158c36.6-87,107.6-286.2,162.6-444.2c91.6-272.5,98.4-286.2,167.1-299.9c98.5-20.6,180.9-80.1,235.8-171.7l45.8-77.8h174c199.2,0,771.6,38.9,904.4,59.5c66.4,9.2,93.9,27.5,109.9,71c11.4,32.1,52.7,87,89.3,121.3l68.7,64.1l9.1,602.2c9.2,634.2,27.5,808.2,144.3,1343.9l59.5,281.6l-66.4,66.4l-66.4,64.1L5263.7,3615.7z"/><path d="M6033,3549.3c-41.2-9.2-84.7-32.1-93.9-45.8c-22.9-36.6-105.3-423.6-148.8-696c-52.7-329.7-84.7-854-68.7-1140.2c13.7-238.1,20.6-270.2,61.8-283.9c25.2-6.9,77.8-43.5,121.3-80.1l75.6-66.4l352.6,89.3c192.3,50.4,496.8,137.4,677.7,196.9c283.9,93.9,325.1,114.5,325.1,155.7c2.3,27.5,20.6,87,43.5,130.5c43.5,77.8,43.5,82.4-2.3,169.4c-100.7,196.9-348,579.3-533.5,826.5c-206.1,274.7-661.7,769.3-707.5,764.7C6122.3,3567.6,6076.5,3558.4,6033,3549.3z"/><path d="M9167.3,2196.2c-107.6-61.8-375.5-201.5-595.3-309.1c-219.8-107.6-416.7-203.8-435-212.9c-18.3-11.5-41.2-57.2-48.1-103c-6.9-45.8-36.6-116.8-66.4-155.7l-50.4-71l137.4-414.4c75.6-226.7,144.2-448.8,153.4-490c11.4-57.2,34.3-82.4,98.4-109.9c45.8-18.3,105.3-54.9,130.5-77.8c45.8-43.5,50.4-43.5,309.1,22.9c265.6,68.7,693.7,144.2,957,171.7c77.9,9.2,142,20.6,142,22.9c0,82.4-84.7,604.4-125.9,776.1c-87,364-350.3,1069.2-398.4,1064.6C9368.8,2310.6,9275,2260.3,9167.3,2196.2z"/><path d="M2820.8,1930.6c-96.2-109.9-217.5-254.1-270.2-320.5l-93.9-119l36.6-112.2l38.9-114.5l235.8-50.4c130.5-27.5,325.1-61.8,432.7-77.8l194.6-29.8l45.8,64.1c27.5,36.6,48.1,80.1,48.1,98.4c0,41.2-190,588.4-254.1,732.6c-25.2,57.2-59.5,105.3-75.6,105.3c-18.3,0-59.5,4.6-96.2,11.4C3003.9,2129.8,2981,2113.7,2820.8,1930.6z"/><path d="M400.7,1827.5c-59.5-158-98.5-286.2-98.5-327.4c0-68.7,194.6-590.7,338.9-911.2c190-414.4,492.2-954.7,538-954.7c25.2,0,66.4,84.7,146.5,299.9c59.5,164.8,199.2,478.5,309.1,698.3c109.9,219.8,190,405.2,180.9,412.1c-11.4,6.9-29.8,50.4-43.5,98.4c-22.9,84.7-32.1,93.9-212.9,162.6c-240.4,96.2-760.1,354.9-961.6,476.2c-84.7,52.7-160.3,96.2-164.8,96.2C425.9,1877.9,412.2,1855,400.7,1827.5z"/><path d="M7072.4,1268.9c-162.5-55-462.5-144.2-668.5-194.6L6033,978.1l-27.5-77.9c-13.7-41.2-50.4-107.6-82.4-146.5c-55-64.1-57.2-73.3-29.8-176.3c73.3-290.8,240.4-677.7,439.6-1005.1l112.2-190h105.3c59.5,0,137.4-11.5,176.3-25.2c66.4-22.9,87-16,357.2,167.1c158,103,396.1,245,533.5,311.4c215.2,107.6,245,130.5,245,180.9c0,75.5,64.1,206,121.3,247.3c45.8,32.1,45.8,32.1-18.3,256.4C7931,643.9,7860,859.1,7809.7,998.7c-89.3,249.6-93.9,256.4-169.4,267.9c-41.2,6.9-105.3,34.3-142,59.5c-36.6,27.5-80.1,48.1-98.4,45.8C7383.8,1371.9,7237.3,1326.1,7072.4,1268.9z"/><path d="M169.5,1007.9c0-6.9-16-123.6-34.3-263.3C66.5,236.3,100.8-491.7,217.6-984c80.1-350.3,229-755.5,403-1103.6c178.6-357.2,212.9-384.6,212.9-185.4c0,142,61.8,595.3,125.9,920.4l57.2,286.2l-54.9,59.5c-29.8,32.1-66.4,82.4-82.4,112.2c-38.9,75.5-36.6,233.5,6.9,320.5c36.6,71,34.3,73.3-68.7,249.6C666.3-70.4,409.9,447,281.7,753.8C219.9,900.3,169.5,1014.8,169.5,1007.9z"/><path d="M2388,971.3c-43.5-54.9-162.6-100.7-258.7-100.7c-73.3,0-82.4-9.2-176.3-187.7C1801.9,392,1650.8,60,1554.7-201c-80.1-212.9-84.7-238.1-52.7-274.7c107.6-121.3,135.1-265.6,77.8-405.3c-34.3-80.1-34.3-80.1,93.9-245c348-453.3,833.4-943.3,1282.1-1293.6l192.3-148.8l141.9,45.8c137.4,45.8,139.7,48.1,180.9,167.1c212.9,625,325.1,1511.1,274.7,2191.1c-13.7,196.9-36.6,439.6-52.7,538c-25.2,167.1-29.8,180.9-98.4,208.3c-80.1,32.1-219.8,180.9-219.8,231.3c0,20.6-38.9,36.6-107.6,45.8c-61.8,9.2-249.6,41.2-419,73.3c-169.4,32.1-336.6,64.1-368.6,68.7C2443,1007.9,2410.9,996.5,2388,971.3z"/><path d="M4943.2,824.7c-87-9.2-309.1-18.3-492.3-20.6l-332-2.3l-96.2-112.2l-96.2-112.2l36.6-258.7c45.8-334.3,52.7-1240.9,11.5-1566c-45.8-341.1-130.5-744.1-222.1-1060.1l-82.4-281.6l52.7-71c29.8-43.5,52.7-116.7,59.5-194.6l9.2-121.3l164.8-89.3c89.3-50.4,297.6-148.8,464.8-219.8l302.2-128.2l66.4,48.1c38.9,27.5,100.7,57.2,142,66.4c66.4,13.7,77.8,29.7,162.6,254.1c217.5,581.5,583.8,1213.5,957,1648.5c119.1,139.7,180.9,229,171.7,251.9c-32.1,84.7-36.7,167.1-11.5,258.7c27.5,98.5,27.5,98.5-121.4,348c-82.4,137.4-196.9,359.5-251.9,492.3c-107.6,251.8-219.8,577-219.8,634.2c0,16-43.5,50.4-98.4,73.3c-55,22.9-125.9,75.6-158,114.5C5295.7,854.5,5270.6,856.8,4943.2,824.7z"/><path d="M9648.2,167.6c-224.4-25.2-652.5-107.6-902.1-174c-105.3-27.5-114.5-34.4-155.7-148.8c-22.9-64.1-66.4-135.1-96.2-158l-50.4-41.2l50.4-354.9c55-391.5,100.7-909,100.7-1160.8c0-160.3,0-162.6,77.9-208.3c93.9-55,174-199.2,174-309.1c0-73.3,9.2-82.4,112.2-128.2c61.8-25.2,123.6-48.1,135.1-48.1c32.1,0,206.1,302.2,345.7,595.3c290.8,611.3,476.2,1412.7,455.6,1969l-6.9,196.9L9648.2,167.6z"/><path d="M7688.3-413.9c-192.3-98.4-560.9-329.7-702.9-441.9c-29.8-22.9-36.6-48.1-27.5-89.3c9.2-29.8,2.3-100.8-11.4-155.7l-27.5-100.8l132.8-121.3c316-283.9,744.1-599.9,1030.3-757.8l96.2-52.7l75.6,52.7c43.5,29.8,80.1,57.2,84.7,57.2c27.5,13.7-100.7,1369.1-146.5,1556.9c-9.2,34.3-41.2,61.8-89.3,77.8c-41.2,13.8-89.3,41.2-103,59.5C7958.5-281.1,7935.6-285.7,7688.3-413.9z"/><path d="M1213.5-1435c-64.1-336.5-114.5-762.4-139.7-1142.5l-13.7-233.5l135.1-169.4c318.3-400.7,789.9-812.8,1245.5-1089.8l153.4-93.9l146.5,238.1c80.1,130.5,206.1,354.9,279.3,496.8l132.8,258.7l-61.8,89.3c-41.2,61.8-59.5,119.1-59.5,185.4c0,93.9-4.6,98.4-222.1,267.9c-469.4,359.5-890.6,778.4-1298.2,1284.4c-98.5,121.4-192.3,222.1-208.3,222.1C1284.5-1121.4,1252.4-1226.7,1213.5-1435z"/><path d="M6243.6-1567.8c-345.7-416.7-670.8-973.1-886.1-1527.1l-100.7-256.4l54.9-66.4c32.1-38.9,64.1-98.4,71-132.8c13.7-73.3,9.1-73.3,315.9-135.1c547.2-114.5,824.2-142,1522.5-153.4l677.7-11.4l192.3,158l194.6,158l13.7,158c9.2,89.3,20.6,261,27.5,382.3l9.2,222.1l-84.7,57.2c-89.3,59.5-160.3,178.6-160.3,270.2c0,45.8-25.2,71-119.1,121.3c-311.4,169.4-801.3,531.2-1110.4,819.6c-142,135.1-142,135.1-295.3,137.4l-151.1,4.6L6243.6-1567.8z"/><path d="M8647.6-2728.6c-45.8-22.9-52.7-43.5-52.7-176.3c0-82.4-6.9-192.3-16-242.7l-13.7-91.6l52.7,45.8c57.2,50.4,320.5,366.3,320.5,386.9c0,13.7-203.8,105.3-226.7,103C8704.9-2703.4,8675.1-2714.9,8647.6-2728.6z"/><path d="M3617.5-3200.3c-6.9-13.8-61.8-34.3-121.4-50.4c-109.9-25.2-109.9-27.5-212.9-235.8c-57.2-116.8-183.2-343.4-279.3-503.7l-176.3-295.4l164.8-75.6c405.2-187.7,968.5-341.1,1456.1-400.7c160.3-18.3,219.8-18.3,231.2,0c9.2,16,22.9,96.2,32.1,178.6c6.9,84.7,32.1,254.2,57.2,377.8c38.9,212.9,38.9,224.4,2.3,245c-48.1,25.2-137.4,199.2-137.4,267.9c0,36.6-41.2,64.1-210.6,132.8c-116.8,48.1-336.6,148.8-487.7,226.7c-151.1,75.6-281.6,141.9-290.8,146.5C3638.1-3181.9,3624.4-3188.8,3617.5-3200.3z"/><path d="M5286.6-3937.5c-34.3-36.6-98.4-77.9-139.7-91.6c-89.3-29.8-87-22.9-146.5-389.2c-64.1-405.3-82.4-366.3,167.1-366.3c618.2,2.3,1353.1,185.4,1985,499.1l309.1,153.4l-137.4,4.6c-357.2,13.7-892.9,57.2-1110.4,89.3c-229,32.1-776.2,137.4-833.4,160.3C5366.7-3873.4,5323.2-3898.6,5286.6-3937.5z"/></g></g>
</svg>