<?xml version="1.0" encoding="utf-8"?>
<!-- Svg Vector Icons : http://www.onlinewebfonts.com/icon -->
<!DOCTYPE svg PUBLIC "-//W3C//DTD SVG 1.1//EN" "http://www.w3.org/Graphics/SVG/1.1/DTD/svg11.dtd">
<svg version="1.1" xmlns="http://www.w3.org/2000/svg" xmlns:xlink="http://www.w3.org/1999/xlink" x="0px" y="0px" viewBox="0 0 1000 1000" enable-background="new 0 0 1000 1000" xml:space="preserve">
<metadata> Svg Vector Icons : http://www.onlinewebfonts.com/icon </metadata>
<g><g transform="translate(0.000000,511.000000) scale(0.100000,-0.100000)"><path d="M5500.6,4982.2c-299.8-66.4-625.3-242-822.3-443.3l-94.2-96.4l27.8-147.8c147.7-800.9,845.8-1419.7,1811.6-1603.9c209.9-38.5,642.4-51.4,869.4-23.6l143.5,17.1l32.1,100.6c119.9,366.2,107.1,805.2-34.3,1160.6c-190.6,483.9-608.1,863-1113.5,1008.6C6108.7,5014.3,5708.3,5029.3,5500.6,4982.2z"/><path d="M4262.9,3902.9c-122.1-286.9-130.6-773-19.3-1102.8c34.3-104.9,62.1-194.9,60-197c-2.1-4.3-218.4-30-479.7-60c-509.7-57.8-676.7-98.5-833-205.6c-171.3-117.8-179.9-145.6-379-1057.8c-209.8-957.2-207.7-937.9-40.7-1124.2c77.1-85.7,158.4-137.1,415.4-267.7c175.6-89.9,319.1-167,319.1-173.4c0-4.3-156.3-376.9-344.8-826.6c-316.9-749.5-346.9-828.7-344.7-942.2c0-66.4,12.8-141.3,23.5-164.9c12.9-23.6,23.6-72.8,23.6-109.2c0-87.8,55.7-203.4,122.1-257c51.4-40.7,51.4-40.7,12.8-111.4c-25.7-49.2-38.5-117.8-38.5-231.3c0-231.3,83.5-394,327.6-640.3c344.8-346.9,462.5-616.7,389.7-884.4c-12.9-45-47.1-109.2-74.9-143.5c-30-34.3-53.5-77.1-53.5-94.2c0-72.8,158.4-128.5,231.3-83.5c47.1,32.1,115.6,244.1,126.3,402.6c25.7,327.6-87.8,569.6-421.9,905.8c-306.2,306.2-387.6,477.5-312.7,672.4l34.3,89.9l130.6-6.4c152-8.6,216.3,4.3,267.7,53.5c19.3,21.4,85.7,57.8,145.6,81.4l107.1,42.8l466.8,781.6c257,430.4,475.4,792.3,483.9,805.1c10.7,17.1,154.2-42.8,432.6-175.6c473.2-229.1,533.2-239.8,719.5-147.8c137.1,68.5,177.7,111.4,700.2,764.5c479.7,599.6,520.4,672.4,503.2,882.2c-6.4,85.7-70.7,239.8-291.2,702.4c-156.3,325.5-282.7,597.4-282.7,603.9c0,6.4,70.7,45,158.5,85.7c87.8,40.7,205.6,104.9,263.4,143.5c113.5,79.2,342.6,289.1,372.6,342.6c15,32.1,6.4,32.1-83.5,15c-158.5-34.2-783.8-32.1-967.9,2.1c-914.4,164.9-1591,736.6-1788,1509.6l-49.2,194.9L4262.9,3902.9z M3513.4,1046.4c2.1-2.1-23.6-132.8-57.8-291.2c-36.4-158.5-64.2-291.2-64.2-295.5c0-6.4,81.4,98.5,182,229.1l184.2,235.5l94.2-45l94.2-45l-119.9-152c-66.4-83.5-205.6-265.5-312.6-402.6c-104.9-139.2-199.2-252.7-209.9-252.7c-42.8,0-169.2,75-169.2,100.7c0,17.1,25.7,141.3,55.7,276.2c30,137.1,51.4,250.5,47.1,257c-4.3,4.3-85.7-92.1-177.7-214.1l-171.3-220.6l-89.9,42.8c-57.8,27.8-83.5,53.5-75,68.5c8.6,15,149.9,201.3,312.6,413.3l297.7,387.6l87.8-45C3470.6,1069.9,3511.3,1048.5,3513.4,1046.4z M4350.7,631l239.8-122.1l-64.2-90l-66.4-89.9l-160.6,79.2l-162.7,79.2l-51.4-64.2l-51.4-64.2l149.9-74.9c83.5-40.7,149.9-79.2,149.9-85.7c0-6.4-27.8-45-62.1-85.6l-62.1-75l-152.1,75l-152,72.8l-62.1-74.9l-62.1-72.8l152-79.2c81.4-42.8,158.5-87.8,167-96.4c19.3-19.3-81.4-177.7-113.5-177.7c-25.7,0-531,254.8-531,267.7c0,27.8,610.3,803,631.7,800.9C4098,753,4217.9,697.3,4350.7,631z M4785.4,318.3c-23.5-36.4-70.7-119.9-109.2-184.2c-38.5-64.2-89.9-152-113.5-192.7l-45-75l62.1,47.1c36.4,25.7,137,119.9,224.8,207.7C4892.4,211.2,4976,284,4991,284c45,0,177.7-70.7,177.7-96.4c0-12.9-12.9-40.7-27.8-64.2c-17.1-23.6-79.2-139.2-141.3-257L4886-347.7l233.4,231.3L5355,117l94.2-47.1l94.2-49.2l-192.7-182c-107.1-98.5-284.8-265.5-396.1-368.3l-203.4-188.4l-85.7,42.8c-47.1,23.5-89.9,47.1-94.2,51.4c-4.3,2.1,53.5,124.2,126.3,269.8c149.9,295.5,156.3,295.5-152.1,2.1c-89.9-85.6-175.6-156.3-188.4-156.3c-15,0-62.1,19.3-107.1,42.8l-83.5,40.7l237.7,449.7l237.7,447.5l92.1-45l89.9-45L4785.4,318.3z M5821.8-99.3c47.1-21.4,102.8-57.8,124.2-83.5c49.2-53.5,68.5-188.4,38.5-265.5l-21.4-57.8l-92.1,40.7c-81.4,36.4-92.1,47.1-85.7,102.8c10.7,102.8-98.5,149.9-152,66.4c-17.1-27.9-4.3-62.1,49.3-149.9c89.9-147.8,104.9-261.2,47.1-374.7c-51.4-102.8-100.6-147.8-203.4-190.6c-113.5-47.1-312.7,15-387.6,122.1c-40.7,55.7-45,175.6-10.7,272c27.8,77.1,32.1,77.1,145.6,32.1c79.2-32.1,83.5-38.6,64.3-87.8c-38.6-102.8,27.9-177.7,130.6-145.6c74.9,23.5,74.9,107.1,2.1,222.7c-38.5,57.8-72.8,139.2-81.4,177.7c-19.3,130.6,104.9,310.5,239.8,344.8C5706.2-54.3,5734-58.6,5821.8-99.3z"/></g></g>
</svg>