<?xml version="1.0" encoding="utf-8"?>
<!-- Svg Vector Icons : http://www.onlinewebfonts.com/icon -->
<!DOCTYPE svg PUBLIC "-//W3C//DTD SVG 1.1//EN" "http://www.w3.org/Graphics/SVG/1.1/DTD/svg11.dtd">
<svg version="1.1" xmlns="http://www.w3.org/2000/svg" xmlns:xlink="http://www.w3.org/1999/xlink" x="0px" y="0px" viewBox="0 0 1000 1000" enable-background="new 0 0 1000 1000" xml:space="preserve">
<metadata> Svg Vector Icons : http://www.onlinewebfonts.com/icon </metadata>
<g><path d="M751.6,487.3h158.1V546H751.6V487.3L751.6,487.3z"/><path d="M101.8,24.5v92.4l40.3-12.5V64.8h807.5v514.8H307l-2.1,40.3H990V24.5H101.8z"/><path d="M166,365.2c66,0,119.6-53.5,119.6-119.6c0-66-53.5-119.6-119.6-119.6c-66,0-119.6,53.5-119.6,119.6C46.4,311.6,99.9,365.2,166,365.2z"/><path d="M267.5,920.9V708v-20v-27.2h7.6l11.1-216.1l206.2-106.9l-17.3-33.4l5,8.8l221-126.5l-10-17.5L470.5,295.3l-5.1-10l-188.5,97.7h-67.3L163.9,436l-44.1-52.9l-96.9,18l-6.2,215h41.1l2.2,44.6h6.2v27.2v20v213H58l-48,10.4v44.2h40.9l47.7-7.8l0.4,7.8h52.8v-49.3v-5.3V708h30.1v213v5.3v49.3h52.8l0.4-7.8l47.7,7.8h40.9v-44.2l-48-10.4H267.5z"/></g>
</svg>