<?xml version="1.0" encoding="utf-8"?>
<!-- Svg Vector Icons : http://www.onlinewebfonts.com/icon -->
<!DOCTYPE svg PUBLIC "-//W3C//DTD SVG 1.1//EN" "http://www.w3.org/Graphics/SVG/1.1/DTD/svg11.dtd">
<svg version="1.1" xmlns="http://www.w3.org/2000/svg" xmlns:xlink="http://www.w3.org/1999/xlink" x="0px" y="0px" viewBox="0 0 1000 1000" enable-background="new 0 0 1000 1000" xml:space="preserve">
<metadata> Svg Vector Icons : http://www.onlinewebfonts.com/icon </metadata>
<g><path d="M718.7,558.8c-5.7-120.2-98.5-211.8-219-215.5c-121.9-3.7-215.7,103-219.2,219.8c-3.7,122.2,102.7,216.3,219.2,219.8c120.4,3.6,213.4-100.4,219-215.4c0.2-1.4,0.2-2.8,0.2-4.3C719,561.6,718.9,560.2,718.7,558.8z M499.7,730.9c-93.3,2.8-164.6-78.4-167.3-167.8c-2.8-93.5,78.2-165.1,167.3-167.8c93.3-2.8,164.7,78.4,167.3,167.8C664.2,656.7,593,728.1,499.7,730.9z"/><path d="M933.6,471.5c-37.5-74.3-93.1-134.5-159.3-178.3c21.4-21.4,42.8-42.9,64.2-64.3c23.7-23.7-13-60.5-36.7-36.8c-24.6,24.7-49.2,49.3-73.8,74c-35.8-18.5-73.9-32.6-113.2-42.1c11-36.7,22-73.4,33-110.2c9.6-32.2-40.4-45.9-50-13.8c-11.4,38.1-22.8,76.2-34.2,114.4c-46.6-6.3-94.4-6.2-141.7,0.7c-11.5-38.4-23-76.7-34.5-115.1c-9.6-32-59.7-18.4-50,13.8c11.1,37.2,22.3,74.4,33.4,111.5c-39,10.1-75.8,25.2-109.9,44.5c-25.8-25.9-51.7-51.8-77.5-77.7c-23.7-23.7-60.4,13-36.7,36.8c23.2,23.2,46.3,46.5,69.5,69.7C91.6,389,12.9,538.7,10.1,696.7c-0.1,0.9-0.1,1.7-0.1,2.7c0,1.1,0,2.1,0.1,3.1c4.2,97.2,103.7,146.8,184.7,173.6c124.2,41.1,262.4,47.5,391.9,38.8c111.8-7.5,241.2-26.3,333.7-95C1032.8,736.3,987.7,578.6,933.6,471.5z M925.1,741.5c-22.4,38-69.5,60.2-108.8,75.5c-121.1,47-258.9,53.8-387.2,47c-85.5-4.6-172.1-18.3-252.2-49.3c-49.2-19.1-113.8-55.1-115.1-115.3c2.7-208.7,146.8-385.2,349.8-430.2c203.8-45.2,414.6,73.5,493.6,264.1C928.8,589.8,959.1,683.7,925.1,741.5z"/></g>
</svg>